<svg xmlns="http://www.w3.org/2000/svg" viewBox="0 0 512 512">
  <defs>
    <linearGradient id="grad" x1="0%" y1="0%" x2="100%" y2="100%">
      <stop offset="0%" style="stop-color:#8B0000;stop-opacity:1" />
      <stop offset="100%" style="stop-color:#6B0000;stop-opacity:1" />
    </linearGradient>
  </defs>
  <!-- Background circle -->
  <circle cx="256" cy="256" r="240" fill="url(#grad)"/>
  <!-- Document shape -->
  <rect x="140" y="80" width="232" height="300" rx="8" fill="#FFFFFF"/>
  <!-- Document fold -->
  <path d="M320 80 L372 132 L320 132 Z" fill="#E5E7EB"/>
  <path d="M320 80 L372 132 L320 132 L320 80" fill="none" stroke="#D1D5DB" stroke-width="2"/>
  <!-- Lines representing text -->
  <rect x="170" y="160" width="172" height="12" rx="2" fill="#8B0000" opacity="0.8"/>
  <rect x="170" y="190" width="140" height="8" rx="2" fill="#9CA3AF"/>
  <rect x="170" y="210" width="160" height="8" rx="2" fill="#9CA3AF"/>
  <rect x="170" y="230" width="120" height="8" rx="2" fill="#9CA3AF"/>
  <!-- Divider -->
  <rect x="170" y="260" width="172" height="2" fill="#E5E7EB"/>
  <!-- More lines -->
  <rect x="170" y="280" width="150" height="8" rx="2" fill="#9CA3AF"/>
  <rect x="170" y="300" width="172" height="8" rx="2" fill="#9CA3AF"/>
  <rect x="170" y="320" width="130" height="8" rx="2" fill="#9CA3AF"/>
  <!-- AAR Badge -->
  <circle cx="380" cy="380" r="80" fill="#003366"/>
  <text x="380" y="395" font-family="Arial, sans-serif" font-size="48" font-weight="bold" fill="#FFFFFF" text-anchor="middle">AAR</text>
</svg>
